# xmcd
#
# Track frame offsets: 
# 150
# 1696
# 22315
# 43083
# 46719
# 61408
# 82138
# 98879
# 105674
# 127766
# 144015
# 167838
#
# Disc length: 2408 seconds
# Submitted via: tkcNetwork 1.0
# Revision: 0
# Processed by: cddbd v1.5.1PL0 Copyright (c) Steve Scherf et al.
#
DISCID=9109660c
DTITLE=Tim Burness - Finding New Ways To Love
DYEAR=1900
DGENRE=
TTITLE0=Count In
TTITLE1=Open Man
TTITLE2=Stepping Out
TTITLE3=Returning To You
TTITLE4=Heal Your Soul
TTITLE5=Unstoppable Waves Of Joy
TTITLE6=An Interlude With Monty
TTITLE7=Beneath The Surface
TTITLE8=Love Is For Giving
TTITLE9=Tomorrow's God
TTITLE10=Walk Through The Darkness
TTITLE11=One Dream
EXTD=
EXTT0=
EXTT1=
EXTT2=
EXTT3=
EXTT4=
EXTT5=
EXTT6=
EXTT7=
EXTT8=
EXTT9=
EXTT10=
EXTT11=
PLAYORDER=
